<svg xmlns="http://www.w3.org/2000/svg" viewBox="0 0 400 400" preserveAspectRatio="xMidYMid meet">
  <path d="M76,400 Q75,325 95,305 Q110,290 145,285 L178,282 L178,265 L222,265 L222,282 L255,285 Q290,290 305,305 Q325,325 324,400 Z" fill="#FFE0BD" stroke="#333" stroke-width="2"/>
  <line x1="110" y1="340" x2="110" y2="398" stroke="#333" stroke-width="1.5" stroke-linecap="round"/><line x1="290" y1="340" x2="290" y2="398" stroke="#333" stroke-width="1.5" stroke-linecap="round"/>
  <path d="M113,163 Q113,59 200,55 Q287,59 287,163 Q287,268 200,280 Q113,268 113,163 Z" fill="#FFE0BD" stroke="#333" stroke-width="2"/>
  <!-- Nose -->
  <path d="M193,190 Q200,200 207,190" fill="none" stroke="#333" stroke-width="2"/>
  <path d="M113,155 Q101,167 113,181 Z" fill="#FFE0BD" stroke="#333" stroke-width="2"/><path d="M111,162 Q109,167 111,173" fill="none" stroke="#333" stroke-width="1.5"/><path d="M287,155 Q299,167 287,181 Z" fill="#FFE0BD" stroke="#333" stroke-width="2"/><path d="M289,162 Q291,167 289,173" fill="none" stroke="#333" stroke-width="1.5"/>
  <path d="M150,158 Q170,143 190,158" fill="none" stroke="#333" stroke-width="3" stroke-linecap="round"/>
  <path d="M210,158 Q230,143 250,158" fill="none" stroke="#333" stroke-width="3" stroke-linecap="round"/>
  <ellipse cx="200" cy="225" rx="15" ry="11" fill="#333" stroke="#333" stroke-width="2"/>
  <path d="M150,136 Q170,130 190,136" fill="none" stroke="#333" stroke-width="3" stroke-linecap="round"/>
  <path d="M210,136 Q230,130 250,136" fill="none" stroke="#333" stroke-width="3" stroke-linecap="round"/>
</svg>
