<svg xmlns="http://www.w3.org/2000/svg" viewBox="0 0 400 400" preserveAspectRatio="xMidYMid meet">
  <path d="M76,400 Q75,325 95,305 Q110,290 145,285 L178,282 L178,265 L222,265 L222,282 L255,285 Q290,290 305,305 Q325,325 324,400 Z" fill="#694D3A" stroke="#333" stroke-width="2"/>
  <line x1="110" y1="340" x2="110" y2="398" stroke="#333" stroke-width="1.5" stroke-linecap="round"/><line x1="290" y1="340" x2="290" y2="398" stroke="#333" stroke-width="1.5" stroke-linecap="round"/>
  <path d="M113,163 Q113,59 200,55 Q287,59 287,163 Q287,268 200,280 Q113,268 113,163 Z" fill="#694D3A" stroke="#333" stroke-width="2"/>
  <!-- Nose -->
  <path d="M193,190 Q200,200 207,190" fill="none" stroke="#333" stroke-width="2"/>
  <path d="M113,155 Q101,167 113,181 Z" fill="#694D3A" stroke="#333" stroke-width="2"/><path d="M111,162 Q109,167 111,173" fill="none" stroke="#333" stroke-width="1.5"/><path d="M287,155 Q299,167 287,181 Z" fill="#694D3A" stroke="#333" stroke-width="2"/><path d="M289,162 Q291,167 289,173" fill="none" stroke="#333" stroke-width="1.5"/>
  <ellipse cx="170" cy="158" rx="14" ry="13" fill="#FFF" stroke="#333" stroke-width="2"/>
  <ellipse cx="230" cy="158" rx="14" ry="13" fill="#FFF" stroke="#333" stroke-width="2"/>
  <circle cx="172" cy="159" r="3" fill="#333"/>
  <circle cx="232" cy="159" r="3" fill="#333"/>
  <path d="M147,128 Q170,118 193,128" fill="none" stroke="#333" stroke-width="3" stroke-linecap="round"/><path d="M207,128 Q230,118 253,128" fill="none" stroke="#333" stroke-width="3" stroke-linecap="round"/>
  <path d="M168,218 Q200,255 232,218 Z" fill="#333" stroke="#333" stroke-width="2"/>
  <path d="M178,218 Q200,225 222,218" fill="#FFF" stroke="none"/>
  <defs>
    <linearGradient id="grad-argoggles" x1="0" y1="0" x2="1" y2="1">
      <stop offset="0%" stop-color="#3498DB" stop-opacity="0.6"/>
      <stop offset="40%" stop-color="#2ECC71" stop-opacity="0.55"/>
      <stop offset="70%" stop-color="#F1C40F" stop-opacity="0.55"/>
      <stop offset="100%" stop-color="#3498DB" stop-opacity="0.6"/>
    </linearGradient>
  </defs>
  <!-- Wraparound AR visor frame with upward-curving nose bridge groove -->
  <path d="M119,148 Q123,130 157,128 Q200,124 244,128 Q277,130 281,148 Q287,170 258,184 Q229,190 213,186 Q200,168 187,186 Q171,190 142,184 Q113,170 119,148 Z"
        fill="url(#grad-argoggles)" stroke="#333" stroke-width="2.5"/>
  <!-- Subtle glass reflection highlight -->
  <path d="M132,140 Q152,130 181,132" fill="none" stroke="#FFF" stroke-opacity="0.6" stroke-width="1.5"/>
</svg>
