<svg xmlns="http://www.w3.org/2000/svg" viewBox="0 0 400 400" preserveAspectRatio="xMidYMid meet">
  <path d="M128,130 Q138,112 200,112 Q262,112 272,130 L272,280 Q200,320 128,280 Z" fill="#3A2A1F"/>
  <path d="M128,280 Q200,320 272,280" fill="none" stroke="#333" stroke-width="2"/>
  <path d="M86,400 Q85,325 105,305 Q120,290 152,285 L180,282 L180,265 L220,265 L220,282 L248,285 Q280,290 295,305 Q315,325 314,400 Z" fill="#EDB98A" stroke="#333" stroke-width="2"/>
  <line x1="112" y1="340" x2="112" y2="398" stroke="#333" stroke-width="1.5" stroke-linecap="round"/><line x1="288" y1="340" x2="288" y2="398" stroke="#333" stroke-width="1.5" stroke-linecap="round"/>
  <path d="M115,165 Q115,62 200,58 Q285,62 285,165 Q285,268 200,280 Q115,268 115,165 Z" fill="#EDB98A" stroke="#333" stroke-width="2"/>
  <!-- Nose -->
  <path d="M194,191 Q200,201 206,191" fill="none" stroke="#333" stroke-width="1.5"/>
  
  <ellipse cx="170" cy="158" rx="14" ry="13" fill="#FFF" stroke="#333" stroke-width="2"/>
  <ellipse cx="230" cy="158" rx="14" ry="13" fill="#FFF" stroke="#333" stroke-width="2"/>
  <circle cx="172" cy="159" r="3" fill="#333"/>
  <circle cx="232" cy="159" r="3" fill="#333"/>
  <path d="M147,128 Q170,118 193,128" fill="none" stroke="#333" stroke-width="3" stroke-linecap="round"/><path d="M207,128 Q230,118 253,128" fill="none" stroke="#333" stroke-width="3" stroke-linecap="round"/>
  <path d="M175,230 Q200,210 225,230" fill="none" stroke="#333" stroke-width="2"/>
  <path d="M115,130 Q115,62 200,58 Q285,62 285,130 L289,260 Q285,280 272,280 L272,130 Q262,112 200,112 Q138,112 128,130 L128,280 Q115,280 111,260 Z" fill="#3A2A1F" stroke="#333" stroke-width="2"/>
</svg>
