<svg xmlns="http://www.w3.org/2000/svg" viewBox="0 0 400 400" preserveAspectRatio="xMidYMid meet">
  <path d="M76,400 Q75,325 95,305 Q110,290 145,285 L178,282 L178,265 L222,265 L222,282 L255,285 Q290,290 305,305 Q325,325 324,400 Z" fill="#D08B5B" stroke="#333" stroke-width="2"/>
  <line x1="110" y1="340" x2="110" y2="398" stroke="#333" stroke-width="1.5" stroke-linecap="round"/><line x1="290" y1="340" x2="290" y2="398" stroke="#333" stroke-width="1.5" stroke-linecap="round"/>
  <path d="M113,163 Q113,59 200,55 Q287,59 287,163 Q287,268 200,280 Q113,268 113,163 Z" fill="#D08B5B" stroke="#333" stroke-width="2"/>
  <!-- Nose -->
  <path d="M193,190 Q200,200 207,190" fill="none" stroke="#333" stroke-width="2"/>
  <path d="M113,155 Q101,167 113,181 Z" fill="#D08B5B" stroke="#333" stroke-width="2"/><path d="M111,162 Q109,167 111,173" fill="none" stroke="#333" stroke-width="1.5"/><path d="M287,155 Q299,167 287,181 Z" fill="#D08B5B" stroke="#333" stroke-width="2"/><path d="M289,162 Q291,167 289,173" fill="none" stroke="#333" stroke-width="1.5"/>
  <ellipse cx="170" cy="158" rx="18" ry="18" fill="#FFF" stroke="#333" stroke-width="2"/>
  <circle cx="172" cy="160" r="4" fill="#333"/>
  <path d="M210,160 Q230,153 250,160" fill="none" stroke="#333" stroke-width="3" stroke-linecap="round"/>
  <path d="M147,128 Q170,118 193,128" fill="none" stroke="#333" stroke-width="3" stroke-linecap="round"/><path d="M207,128 Q230,118 253,128" fill="none" stroke="#333" stroke-width="3" stroke-linecap="round"/>
  <!-- Upper lip -->
  <circle cx="185" cy="212" r="1.5" fill="#3A2A1F" stroke="#333" stroke-width="0.5"/>
  <circle cx="193" cy="210" r="1.5" fill="#3A2A1F" stroke="#333" stroke-width="0.5"/>
  <circle cx="200" cy="208" r="1.5" fill="#3A2A1F" stroke="#333" stroke-width="0.5"/>
  <circle cx="207" cy="210" r="1.5" fill="#3A2A1F" stroke="#333" stroke-width="0.5"/>
  <circle cx="215" cy="212" r="1.5" fill="#3A2A1F" stroke="#333" stroke-width="0.5"/>
  <!-- Chin -->
  <circle cx="188" cy="250" r="1.5" fill="#3A2A1F" stroke="#333" stroke-width="0.5"/>
  <circle cx="197" cy="253" r="1.5" fill="#3A2A1F" stroke="#333" stroke-width="0.5"/>
  <circle cx="203" cy="253" r="1.5" fill="#3A2A1F" stroke="#333" stroke-width="0.5"/>
  <circle cx="212" cy="250" r="1.5" fill="#3A2A1F" stroke="#333" stroke-width="0.5"/>
  <circle cx="194" cy="261" r="1.5" fill="#3A2A1F" stroke="#333" stroke-width="0.5"/>
  <circle cx="206" cy="261" r="1.5" fill="#3A2A1F" stroke="#333" stroke-width="0.5"/>
  <circle cx="200" cy="269" r="1.5" fill="#3A2A1F" stroke="#333" stroke-width="0.5"/>
  <!-- Jaw sides -->
  <circle cx="152" cy="240" r="1.5" fill="#3A2A1F" stroke="#333" stroke-width="0.5"/>
  <circle cx="148" cy="230" r="1.5" fill="#3A2A1F" stroke="#333" stroke-width="0.5"/>
  <circle cx="248" cy="240" r="1.5" fill="#3A2A1F" stroke="#333" stroke-width="0.5"/>
  <circle cx="252" cy="230" r="1.5" fill="#3A2A1F" stroke="#333" stroke-width="0.5"/>
</svg>
